<svg width="160" height="47" viewBox="0 0 160 47" fill="none" xmlns="http://www.w3.org/2000/svg">
<path d="M12.7337 0.000152483C12.244 0.000152483 11.7601 0.000152483 11.2717 0.00249837C10.8628 0.00484426 10.4572 0.0116591 10.0443 0.0173948C9.14758 0.0266663 8.25293 0.0959573 7.36817 0.224666C6.48462 0.35618 5.62876 0.60412 4.82951 0.960102C4.03125 1.3191 3.30185 1.78557 2.66778 2.3426C2.03039 2.89807 1.49907 3.54012 1.09425 4.24405C0.688324 4.94659 0.406852 5.69942 0.259557 6.47654C0.110862 7.25268 0.0308482 8.03778 0.020233 8.82478C0.00783947 9.1844 0.00653066 9.54522 0 9.90489V37.0166C0.00653066 37.3808 0.00783947 37.7337 0.020233 38.098C0.0308516 38.8849 0.110866 39.67 0.259557 40.4461C0.406445 41.2237 0.687934 41.9769 1.09425 42.6797C1.49888 43.3814 2.03028 44.0208 2.66778 44.5732C3.29945 45.1327 4.02932 45.5995 4.82951 45.9558C5.62875 46.3127 6.48452 46.5621 7.36817 46.6957C8.2531 46.8233 9.14768 46.8927 10.0444 46.903C10.4572 46.911 10.8628 46.9156 11.2717 46.9156C11.7601 46.9179 12.244 46.9179 12.7337 46.9179H147.087C147.567 46.9179 148.054 46.9179 148.534 46.9156C148.941 46.9156 149.359 46.911 149.765 46.903C150.66 46.8932 151.553 46.8239 152.436 46.6957C153.323 46.5612 154.182 46.3118 154.985 45.9558C155.784 45.5993 156.514 45.1325 157.145 44.5732C157.781 44.0187 158.313 43.3797 158.723 42.6797C159.126 41.9764 159.405 41.2232 159.55 40.4461C159.698 39.6699 159.781 38.885 159.797 38.098C159.803 37.7337 159.803 37.3808 159.803 37.0166C159.813 36.5905 159.813 36.1667 159.813 35.7337V11.1855C159.813 10.756 159.813 10.3299 159.803 9.90489C159.803 9.54522 159.803 9.1844 159.797 8.82473C159.781 8.03766 159.698 7.25274 159.55 6.47649C159.404 5.69982 159.126 4.94705 158.723 4.24401C157.898 2.83304 156.591 1.68453 154.985 0.959996C154.182 0.604885 153.323 0.357011 152.436 0.22456C151.554 0.0952814 150.661 0.0259662 149.765 0.0172306C149.359 0.0115066 148.941 0.00463313 148.534 0.00234589C148.054 0 147.567 0 147.087 0" fill="black"/>
<path d="M148.526 1.02539L149.745 1.04029C150.577 1.04897 151.407 1.11272 152.227 1.231C153.003 1.34675 153.755 1.56332 154.459 1.87359C155.845 2.50094 156.973 3.49346 157.684 4.71204C158.032 5.32139 158.273 5.97346 158.399 6.64613C158.537 7.37805 158.615 8.11788 158.631 8.85972C158.635 9.1919 158.635 9.54871 158.635 9.9038C158.645 10.3437 158.645 10.7623 158.645 11.1844V35.7326C158.645 36.1587 158.645 36.5745 158.635 36.9937C158.635 37.3752 158.635 37.7246 158.63 38.0842C158.614 38.8128 158.538 39.5394 158.401 40.2583C158.277 40.9398 158.033 41.6005 157.68 42.2171C157.328 42.8181 156.87 43.3666 156.324 43.8424C155.778 44.3278 155.147 44.7327 154.455 45.0418C153.753 45.3538 153.002 45.5712 152.227 45.6866C151.402 45.8051 150.567 45.869 149.731 45.878C149.34 45.8859 148.93 45.8905 148.532 45.8905L147.085 45.8929L11.2764 45.8905C10.8694 45.8905 10.4724 45.8859 10.0687 45.878C9.23234 45.8684 8.39797 45.8044 7.57239 45.6866C6.80259 45.5702 6.05686 45.3536 5.35979 45.044C4.66912 44.7369 4.03917 44.3343 3.49408 43.8516C2.9411 43.3745 2.48071 42.8212 2.13118 42.2136C1.77778 41.602 1.53322 40.9464 1.40599 40.2698C1.2686 39.5427 1.19426 38.8075 1.18363 38.0705C1.17516 37.8231 1.16406 36.9995 1.16406 36.9995V9.9038C1.16406 9.9038 1.17588 9.09282 1.18369 8.85456C1.19388 8.11875 1.26778 7.38469 1.40476 6.65873C1.53222 5.9802 1.77698 5.32276 2.13056 4.70917C2.47881 4.10194 2.93664 3.54819 3.48629 3.0694C4.03533 2.5861 4.6673 2.18143 5.35914 1.87016C6.0546 1.56154 6.79893 1.34646 7.56717 1.23215C8.39546 1.11317 9.23272 1.04884 10.0719 1.03971L11.277 1.02539" fill="white"/>
<path d="M145.267 23.8107C145.279 22.8317 145.539 21.8718 146.023 21.0203C146.506 20.1687 147.197 19.4533 148.031 18.9405C147.501 18.1838 146.802 17.561 145.989 17.1217C145.177 16.6824 144.273 16.4386 143.349 16.4097C141.38 16.203 139.47 17.5883 138.466 17.5883C137.443 17.5883 135.898 16.4302 134.234 16.4645C133.157 16.4992 132.108 16.8123 131.189 17.373C130.27 17.9337 129.511 18.7231 128.987 19.6641C126.719 23.5916 128.411 29.3637 130.584 32.5384C131.671 34.093 132.942 35.8295 134.604 35.7679C136.231 35.7004 136.839 34.7305 138.803 34.7305C140.748 34.7305 141.319 35.7679 143.015 35.7288C144.761 35.7004 145.861 34.1673 146.91 32.598C147.691 31.4903 148.292 30.2661 148.691 28.9707C147.676 28.5417 146.811 27.8236 146.202 26.906C145.593 25.9885 145.268 24.9119 145.267 23.8107Z" fill="black"/>
<path d="M142.062 14.3218C143.014 13.1791 143.483 11.7104 143.369 10.2275C141.915 10.3803 140.572 11.0753 139.607 12.1742C139.135 12.711 138.774 13.3355 138.544 14.012C138.314 14.6885 138.219 15.4038 138.265 16.1169C138.993 16.1244 139.712 15.9667 140.37 15.6558C141.028 15.3449 141.606 14.8888 142.062 14.3218Z" fill="black"/>
<path d="M39.6266 31.8328H34.0746L32.7413 35.7697H30.3896L35.6484 21.2041H38.0917L43.3504 35.7697H40.9587L39.6266 31.8328ZM34.6496 30.0161H39.0505L36.881 23.6268H36.8203L34.6496 30.0161Z" fill="black"/>
<path d="M54.7069 30.4605C54.7069 33.7606 52.9406 35.8808 50.2751 35.8808C49.5999 35.9161 48.9284 35.7606 48.3375 35.432C47.7465 35.1034 47.2601 34.615 46.9338 34.0228H46.8834V39.2828H44.7036V25.1502H46.8135V26.9165H46.8536C47.1949 26.3271 47.6895 25.8413 48.285 25.5107C48.8804 25.1801 49.5543 25.0171 50.235 25.0391C52.9303 25.0391 54.7069 27.1696 54.7069 30.4605ZM52.4663 30.4605C52.4663 28.3105 51.3553 26.897 49.66 26.897C47.9945 26.897 46.8742 28.3403 46.8742 30.4605C46.8742 32.6002 47.9945 34.0332 49.66 34.0332C51.3553 34.0332 52.4663 32.63 52.4663 30.4605Z" fill="black"/>
<path d="M66.3949 30.4605C66.3949 33.7606 64.6286 35.8808 61.9631 35.8808C61.2879 35.9161 60.6164 35.7606 60.0255 35.432C59.4346 35.1034 58.9481 34.615 58.6219 34.0228H58.5714V39.2828H56.3916V25.1502H58.5015V26.9165H58.5416C58.8829 26.3271 59.3775 25.8413 59.973 25.5107C60.5684 25.1801 61.2423 25.0171 61.923 25.0391C64.6183 25.0391 66.3949 27.1696 66.3949 30.4605ZM64.1544 30.4605C64.1544 28.3105 63.0433 26.897 61.348 26.897C59.6825 26.897 58.5623 28.3403 58.5623 30.4605C58.5623 32.6002 59.6825 34.0332 61.348 34.0332C63.0433 34.0332 64.1544 32.63 64.1544 30.4605Z" fill="black"/>
<path d="M74.1205 31.712C74.282 33.1564 75.6852 34.1048 77.6027 34.1048C79.44 34.1048 80.7619 33.1564 80.7619 31.854C80.7619 30.7234 79.9646 30.0465 78.0769 29.5826L76.1892 29.1279C73.5146 28.4818 72.2729 27.231 72.2729 25.2012C72.2729 22.6881 74.463 20.9619 77.5729 20.9619C80.6507 20.9619 82.7607 22.6881 82.8317 25.2012H80.6313C80.4995 23.7477 79.298 22.8702 77.542 22.8702C75.786 22.8702 74.5844 23.758 74.5844 25.05C74.5844 26.0798 75.3519 26.6858 77.2293 27.1496L78.8341 27.5437C81.8225 28.2504 83.0642 29.4509 83.0642 31.5814C83.0642 34.3064 80.8936 36.0131 77.4412 36.0131C74.211 36.0131 72.0301 34.3465 71.8892 31.7119L74.1205 31.712Z" fill="black"/>
<path d="M87.7678 22.6377V25.1508H89.7873V26.877H87.7678V32.7314C87.7678 33.6409 88.1722 34.0647 89.0599 34.0647C89.2996 34.0606 89.539 34.0437 89.7769 34.0143V35.7302C89.3778 35.8048 88.9722 35.8385 88.5662 35.831C86.4162 35.831 85.5777 35.0234 85.5777 32.9639V26.877H84.0337V25.1508H85.5778V22.6377H87.7678Z" fill="black"/>
<path d="M90.957 30.4614C90.957 27.1201 92.9249 25.0205 95.9936 25.0205C99.0726 25.0205 101.031 27.1201 101.031 30.4614C101.031 33.8119 99.0829 35.9023 95.9936 35.9023C92.9055 35.9023 90.957 33.8119 90.957 30.4614ZM98.8103 30.4614C98.8103 28.1694 97.7599 26.8166 95.9936 26.8166C94.2273 26.8166 93.1781 28.1797 93.1781 30.4614C93.1781 32.7626 94.2273 34.1051 95.9936 34.1051C97.7599 34.1051 98.8103 32.7626 98.8103 30.4614Z" fill="black"/>
<path d="M102.826 25.1501H104.905V26.9576H104.956C105.096 26.3931 105.427 25.8942 105.892 25.5448C106.357 25.1954 106.929 25.0168 107.51 25.039C107.761 25.0381 108.012 25.0654 108.257 25.1203V27.1592C107.94 27.0623 107.609 27.0178 107.277 27.0275C106.961 27.0146 106.645 27.0705 106.352 27.1911C106.059 27.3118 105.795 27.4945 105.58 27.7266C105.364 27.9587 105.201 28.2348 105.102 28.5358C105.003 28.8369 104.97 29.1558 105.006 29.4707V35.7696H102.826L102.826 25.1501Z" fill="black"/>
<path d="M118.312 32.6515C118.019 34.5793 116.141 35.9023 113.739 35.9023C110.65 35.9023 108.732 33.8325 108.732 30.5118C108.732 27.1808 110.66 25.0205 113.648 25.0205C116.586 25.0205 118.433 27.0388 118.433 30.2587V31.0055H110.933V31.1372C110.898 31.5281 110.947 31.9218 111.076 32.2922C111.206 32.6627 111.412 33.0014 111.682 33.2859C111.953 33.5704 112.28 33.7942 112.644 33.9423C113.007 34.0905 113.398 34.1596 113.79 34.1452C114.305 34.1934 114.822 34.0741 115.264 33.805C115.705 33.5359 116.049 33.1313 116.242 32.6515L118.312 32.6515ZM110.943 29.4821H116.252C116.271 29.1472 116.223 28.8119 116.113 28.4954C116.002 28.1789 115.829 27.8874 115.606 27.6374C115.382 27.3874 115.112 27.184 114.809 27.0386C114.507 26.8932 114.179 26.8088 113.844 26.7902C113.779 26.7865 113.713 26.7854 113.648 26.7868C113.295 26.7847 112.945 26.8521 112.618 26.9853C112.291 27.1185 111.993 27.3147 111.742 27.5629C111.491 27.811 111.291 28.1062 111.154 28.4315C111.017 28.7569 110.945 29.1061 110.943 29.4591C110.943 29.4668 110.943 29.4744 110.943 29.4821Z" fill="black"/>
<path d="M82.5518 18.8643H81.7855C80.2935 18.8643 78.7197 18.5579 78.7197 16.4932C78.8198 15.5648 79.0325 14.6521 79.3531 13.7751L80.3445 14.0408L80.2013 14.5007C79.9892 15.1475 79.8488 15.8157 79.7826 16.4932C79.7826 17.9136 81.1417 17.9136 82.0615 17.9136H82.7053C83.1652 17.9136 83.7986 17.7297 83.7986 17.1472V13.1107H84.8925V16.1358C85.1281 16.2358 85.3823 16.2844 85.6382 16.2784H86.0162V17.2188H85.6382C85.3856 17.2171 85.1345 17.1793 84.8925 17.1066V17.2497C84.8926 17.7807 84.4837 18.8643 82.5518 18.8643ZM81.9287 12.007C81.8001 12.0002 81.6764 11.9559 81.5727 11.8796C81.469 11.8033 81.3899 11.6983 81.3451 11.5775C81.3004 11.4568 81.2919 11.3256 81.3208 11.2001C81.3497 11.0747 81.4147 10.9604 81.5077 10.8714C81.6008 10.7824 81.7179 10.7226 81.8445 10.6993C81.9711 10.6761 82.1018 10.6904 82.2204 10.7405C82.339 10.7906 82.4404 10.8743 82.512 10.9813C82.5836 11.0883 82.6224 11.2139 82.6234 11.3427C82.6281 11.5146 82.5643 11.6813 82.4461 11.8061C82.3279 11.931 82.1649 12.0038 81.993 12.0085C81.9716 12.009 81.9501 12.0086 81.9287 12.007Z" fill="black"/>
<path d="M87.2519 16.2773C87.126 15.8285 87.0674 15.3635 87.0778 14.8976C87.0456 14.5894 87.0792 14.2779 87.1766 13.9837C87.274 13.6895 87.4328 13.4194 87.6425 13.1913C87.8522 12.9633 88.1081 12.7824 88.3931 12.6607C88.678 12.5391 88.9856 12.4795 89.2954 12.4858C90.7467 12.4858 91.3092 13.6714 91.3092 15.082C91.3092 16.1243 90.9408 17.5344 89.5205 17.5344C89.0522 17.4892 88.5918 17.3827 88.1511 17.2177H85.8311V16.2773L87.2519 16.2773ZM88.3556 16.3185C88.7028 16.4654 89.0726 16.5518 89.4489 16.5739C90.0823 16.5739 90.2565 15.7664 90.2565 15.051C90.2565 14.3666 90.0623 13.3856 89.2342 13.3856C88.4885 13.3856 88.1614 14.0803 88.1614 14.9594C88.1476 15.4202 88.2132 15.88 88.3556 16.3185Z" fill="black"/>
<path d="M98.5197 18.8627H97.7534C96.2609 18.8627 94.687 18.5563 94.687 16.4916C94.7874 15.5633 95 14.6506 95.3204 13.7735L96.3124 14.0392L96.1692 14.4991C95.9569 15.1459 95.8163 15.8141 95.7499 16.4916C95.7499 17.912 97.1096 17.912 98.0294 17.912H98.6731C99.1325 17.912 99.7659 17.7281 99.7659 17.1457V10.3291H100.86V16.1343C101.095 16.2342 101.35 16.2828 101.606 16.2769H101.984V17.2173H101.606C101.353 17.2155 101.102 17.1777 100.86 17.105V17.2481C100.86 17.7791 100.451 18.8627 98.5197 18.8627Z" fill="black"/>
<path d="M105.663 12.5381V15.4097C105.663 16.6256 104.937 17.2184 103.496 17.2184H101.8V16.278H103.456C104.324 16.278 104.559 15.9 104.559 15.2563V12.5381H105.663ZM102.925 19.5076C102.796 19.5007 102.672 19.4563 102.569 19.3799C102.465 19.3035 102.386 19.1985 102.341 19.0777C102.297 18.957 102.288 18.8258 102.317 18.7004C102.346 18.5749 102.411 18.4607 102.504 18.3718C102.597 18.2828 102.714 18.2231 102.841 18.1998C102.968 18.1766 103.098 18.1909 103.217 18.2411C103.336 18.2912 103.437 18.3749 103.508 18.4819C103.58 18.5889 103.619 18.7145 103.62 18.8432C103.622 18.9338 103.606 19.0239 103.571 19.1077C103.537 19.1915 103.485 19.2671 103.42 19.3297C103.354 19.3923 103.276 19.4405 103.191 19.4711C103.106 19.5017 103.015 19.5142 102.925 19.5076ZM104.642 19.5076C104.513 19.5009 104.389 19.4567 104.285 19.3804C104.182 19.3041 104.102 19.1992 104.058 19.0785C104.013 18.9577 104.004 18.8265 104.033 18.701C104.062 18.5755 104.127 18.4612 104.22 18.3721C104.313 18.2831 104.43 18.2232 104.557 18.1999C104.683 18.1766 104.814 18.1909 104.933 18.241C105.051 18.2911 105.153 18.3748 105.224 18.4818C105.296 18.5888 105.335 18.7144 105.336 18.8432C105.34 19.0151 105.277 19.1818 105.158 19.3067C105.04 19.4315 104.877 19.5043 104.705 19.509C104.684 19.5096 104.663 19.5091 104.642 19.5076Z" fill="black"/>
<path d="M106.477 18.7507C106.633 18.7698 106.79 18.78 106.947 18.7811C107.847 18.7811 108.296 18.2599 108.296 17.2072V13.099H109.4V16.2771H110.412V17.2175H109.39C109.402 17.9142 109.15 18.5897 108.684 19.1081C108.188 19.5237 107.554 19.7387 106.907 19.7112C106.674 19.7075 106.442 19.6905 106.211 19.6602L106.477 18.7507ZM108.797 12.1076C108.668 12.1007 108.544 12.0563 108.441 11.9799C108.337 11.9036 108.258 11.7985 108.213 11.6778C108.169 11.557 108.16 11.4259 108.189 11.3004C108.218 11.175 108.283 11.0608 108.376 10.9718C108.47 10.8829 108.587 10.8231 108.713 10.7999C108.84 10.7767 108.97 10.791 109.089 10.8411C109.208 10.8912 109.309 10.9749 109.381 11.0819C109.452 11.1889 109.491 11.3145 109.492 11.4433C109.495 11.5339 109.478 11.624 109.444 11.7078C109.409 11.7916 109.357 11.8673 109.292 11.9299C109.226 11.9925 109.148 12.0407 109.063 12.0713C108.978 12.1019 108.887 12.1143 108.797 12.1076Z" fill="black"/>
<path d="M114.038 17.2175C113.597 17.2038 113.166 17.0846 112.781 16.8699C112.252 17.1531 111.651 17.274 111.054 17.2175H110.226V16.2771H111.116C111.953 16.2771 112.117 16.1442 112.117 15.5314V12.5372H113.211V16.0932C113.469 16.2172 113.752 16.2802 114.038 16.2771H114.723V17.2175L114.038 17.2175ZM112.617 11.5149C112.489 11.5079 112.365 11.4635 112.261 11.3872C112.158 11.3108 112.079 11.2057 112.034 11.085C111.989 10.9643 111.981 10.8331 112.01 10.7077C112.039 10.5822 112.104 10.468 112.197 10.379C112.29 10.2901 112.407 10.2303 112.534 10.2071C112.66 10.1839 112.791 10.1982 112.91 10.2483C113.028 10.2985 113.13 10.3822 113.201 10.4892C113.273 10.5962 113.311 10.7218 113.313 10.8505C113.315 10.9411 113.299 11.0312 113.264 11.115C113.23 11.1988 113.178 11.2745 113.112 11.3371C113.047 11.3997 112.969 11.4479 112.884 11.4785C112.798 11.5091 112.708 11.5215 112.617 11.5149Z" fill="black"/>
<path d="M117.34 12.5372V15.4088C117.34 16.6247 116.615 17.2175 115.174 17.2175H114.539V16.2771H115.132C116.001 16.2771 116.235 15.8991 116.235 15.2554V12.5372H117.34ZM115.714 11.5149C115.586 11.5079 115.462 11.4635 115.358 11.3872C115.255 11.3108 115.176 11.2057 115.131 11.085C115.086 10.9643 115.078 10.8331 115.107 10.7077C115.136 10.5822 115.201 10.468 115.294 10.379C115.387 10.2901 115.504 10.2303 115.631 10.2071C115.757 10.1839 115.888 10.1982 116.007 10.2483C116.125 10.2985 116.227 10.3822 116.298 10.4892C116.37 10.5962 116.408 10.7218 116.41 10.8505C116.412 10.9411 116.396 11.0312 116.361 11.115C116.327 11.1988 116.275 11.2745 116.209 11.3371C116.144 11.3997 116.066 11.4479 115.981 11.4785C115.895 11.5091 115.805 11.5215 115.714 11.5149ZM117.431 11.5149C117.303 11.5079 117.179 11.4635 117.075 11.3872C116.972 11.3108 116.893 11.2057 116.848 11.085C116.803 10.9643 116.795 10.8331 116.824 10.7077C116.853 10.5822 116.918 10.468 117.011 10.379C117.104 10.2901 117.221 10.2303 117.348 10.2071C117.474 10.1839 117.605 10.1982 117.724 10.2483C117.842 10.2985 117.944 10.3822 118.015 10.4892C118.087 10.5962 118.126 10.7218 118.127 10.8505C118.129 10.9411 118.113 11.0312 118.078 11.115C118.044 11.1988 117.992 11.2745 117.927 11.3371C117.861 11.3997 117.783 11.4479 117.698 11.4785C117.612 11.5091 117.522 11.5215 117.431 11.5149Z" fill="black"/>
</svg>
