<svg width="160" height="47" viewBox="0 0 160 47" fill="none" xmlns="http://www.w3.org/2000/svg">
<path d="M12.9207 0.000152483C12.431 0.000152483 11.9471 0.000152483 11.4587 0.00249837C11.0498 0.00484426 10.6442 0.0116591 10.2313 0.0173948C9.33459 0.0266663 8.43994 0.0959573 7.55518 0.224666C6.67163 0.35618 5.81577 0.60412 5.01652 0.960102C4.21826 1.3191 3.48886 1.78557 2.85479 2.3426C2.2174 2.89807 1.68608 3.54012 1.28127 4.24405C0.875336 4.94659 0.593863 5.69942 0.446569 6.47654C0.297874 7.25268 0.21786 8.03778 0.207245 8.82478C0.194851 9.1844 0.193542 9.54522 0.187012 9.90489V37.0166C0.193542 37.3808 0.194851 37.7337 0.207245 38.098C0.217863 38.8849 0.297877 39.67 0.446569 40.4461C0.593457 41.2237 0.874946 41.9769 1.28127 42.6797C1.68589 43.3814 2.21729 44.0208 2.85479 44.5732C3.48646 45.1327 4.21633 45.5995 5.01652 45.9558C5.81576 46.3127 6.67153 46.5621 7.55518 46.6957C8.44011 46.8233 9.33469 46.8927 10.2314 46.903C10.6442 46.911 11.0498 46.9156 11.4588 46.9156C11.9471 46.9179 12.431 46.9179 12.9207 46.9179H147.274C147.754 46.9179 148.241 46.9179 148.721 46.9156C149.128 46.9156 149.546 46.911 149.952 46.903C150.847 46.8932 151.74 46.8239 152.623 46.6957C153.51 46.5612 154.369 46.3118 155.172 45.9558C155.971 45.5993 156.701 45.1325 157.332 44.5732C157.968 44.0187 158.5 43.3797 158.91 42.6797C159.313 41.9764 159.592 41.2232 159.737 40.4461C159.885 39.6699 159.968 38.885 159.984 38.098C159.99 37.7337 159.99 37.3808 159.99 37.0166C160 36.5905 160 36.1667 160 35.7337V11.1855C160 10.756 160 10.3299 159.99 9.90489C159.99 9.54522 159.99 9.1844 159.984 8.82473C159.968 8.03766 159.885 7.25274 159.737 6.47649C159.591 5.69982 159.313 4.94705 158.91 4.24401C158.085 2.83304 156.778 1.68453 155.172 0.959996C154.369 0.604885 153.51 0.357011 152.623 0.22456C151.741 0.0952814 150.848 0.0259662 149.952 0.0172306C149.546 0.0115066 149.128 0.00463313 148.721 0.00234589C148.241 0 147.754 0 147.274 0" fill="#00004E99"/>
<path d="M148.713 1.02539L149.932 1.04029C150.764 1.04897 151.594 1.11272 152.414 1.231C153.19 1.34675 153.942 1.56332 154.646 1.87359C156.032 2.50094 157.16 3.49346 157.871 4.71204C158.219 5.32139 158.46 5.97346 158.586 6.64613C158.724 7.37805 158.802 8.11788 158.818 8.85972C158.822 9.1919 158.822 9.54871 158.822 9.9038C158.832 10.3437 158.832 10.7623 158.832 11.1844V35.7326C158.832 36.1587 158.832 36.5745 158.822 36.9937C158.822 37.3752 158.822 37.7246 158.817 38.0842C158.801 38.8128 158.725 39.5394 158.588 40.2583C158.464 40.9398 158.221 41.6005 157.867 42.2171C157.515 42.8181 157.057 43.3666 156.511 43.8424C155.965 44.3278 155.334 44.7327 154.642 45.0418C153.94 45.3538 153.189 45.5712 152.414 45.6866C151.589 45.8051 150.754 45.869 149.918 45.878C149.527 45.8859 149.117 45.8905 148.719 45.8905L147.272 45.8929L11.4634 45.8905C11.0565 45.8905 10.6594 45.8859 10.2557 45.878C9.41935 45.8684 8.58498 45.8044 7.75941 45.6866C6.9896 45.5702 6.24387 45.3536 5.54681 45.044C4.85613 44.7369 4.22619 44.3343 3.68109 43.8516C3.12811 43.3745 2.66773 42.8212 2.31819 42.2136C1.9648 41.602 1.72023 40.9464 1.593 40.2698C1.45561 39.5427 1.38128 38.8075 1.37064 38.0705C1.36217 37.8231 1.35107 36.9995 1.35107 36.9995V9.9038C1.35107 9.9038 1.36289 9.09282 1.37071 8.85456C1.38089 8.11875 1.45479 7.38469 1.59177 6.65873C1.71923 5.9802 1.96399 5.32276 2.31757 4.70917C2.66582 4.10194 3.12365 3.54819 3.67331 3.0694C4.22235 2.5861 4.85431 2.18143 5.54615 1.87016C6.24161 1.56154 6.98594 1.34646 7.75418 1.23215C8.58247 1.11317 9.41973 1.04884 10.259 1.03971L11.464 1.02539" fill="white"/>
<path d="M79.6703 25.9451C76.8794 25.9451 74.6698 28.0384 74.6698 30.9456C74.6698 33.7366 76.8794 35.9461 79.6703 35.9461C82.4613 35.9461 84.6708 33.8529 84.6708 30.9456C84.5545 28.0384 82.345 25.9451 79.6703 25.9451ZM79.6703 33.8529C78.1586 33.8529 76.8794 32.5737 76.8794 30.8293C76.8794 29.085 78.1586 27.8058 79.6703 27.8058C81.1821 27.8058 82.4613 28.9687 82.4613 30.8293C82.4613 32.69 81.1821 33.8529 79.6703 33.8529ZM68.8553 25.9451C66.0644 25.9451 63.8549 28.0384 63.8549 30.9456C63.8549 33.7366 66.0644 35.9461 68.8553 35.9461C71.6463 35.9461 73.8558 33.8529 73.8558 30.9456C73.7395 28.0384 71.53 25.9451 68.8553 25.9451ZM68.8553 33.8529C67.3436 33.8529 66.0644 32.5737 66.0644 30.8293C66.0644 29.085 67.3436 27.8058 68.8553 27.8058C70.3671 27.8058 71.6463 28.9687 71.6463 30.8293C71.6463 32.69 70.2508 33.8529 68.8553 33.8529ZM55.9471 27.4569V29.5501H60.9476C60.8313 30.713 60.3662 31.6434 59.7847 32.2248C59.087 32.9225 57.9241 33.7366 55.9471 33.7366C52.8073 33.7366 50.4815 31.2945 50.4815 28.1546C50.4815 25.0148 52.9236 22.5727 55.9471 22.5727C57.5752 22.5727 58.8544 23.2705 59.7847 24.0845L61.2965 22.5727C60.0173 21.4098 58.3892 20.4795 56.0634 20.4795C51.877 20.4795 48.272 23.9682 48.272 28.1546C48.272 32.3411 51.877 35.8298 56.0634 35.8298C58.3892 35.8298 60.0173 35.1321 61.4128 33.6203C62.8083 32.2248 63.2734 30.2479 63.2734 28.7361C63.2734 28.2709 63.2734 27.8058 63.1571 27.4569H55.9471ZM108.627 29.085C108.161 27.9221 106.999 25.9451 104.44 25.9451C101.882 25.9451 99.7885 27.9221 99.7885 30.9456C99.7885 33.7366 101.882 35.9461 104.673 35.9461C106.882 35.9461 108.278 34.5506 108.743 33.7366L107.115 32.5737C106.533 33.3877 105.836 33.9692 104.673 33.9692C103.51 33.9692 102.812 33.504 102.231 32.4574L108.859 29.6664L108.627 29.085ZM101.882 30.713C101.882 28.8524 103.394 27.8058 104.44 27.8058C105.254 27.8058 106.068 28.2709 106.301 28.8524L101.882 30.713ZM96.5324 35.5972H98.7419V21.0609H96.5324V35.5972ZM92.9274 27.108C92.346 26.5266 91.4156 25.9451 90.2527 25.9451C87.8106 25.9451 85.4848 28.1546 85.4848 30.9456C85.4848 33.7366 87.6944 35.8298 90.2527 35.8298C91.4156 35.8298 92.346 35.2483 92.8111 34.6669H92.9274V35.3646C92.9274 37.2253 91.8808 38.2719 90.2527 38.2719C88.9735 38.2719 88.0432 37.3416 87.8106 36.5275L85.95 37.3416C86.5315 38.6208 87.9269 40.2488 90.369 40.2488C92.9274 40.2488 95.0206 38.7371 95.0206 35.1321V26.294H92.9274V27.108ZM90.4853 33.8529C88.9735 33.8529 87.6944 32.5737 87.6944 30.8293C87.6944 29.085 88.9735 27.8058 90.4853 27.8058C91.9971 27.8058 93.16 29.085 93.16 30.8293C93.0437 32.69 91.8808 33.8529 90.4853 33.8529ZM118.744 21.0609H113.511V35.5972H115.72V30.1316H118.744C121.186 30.1316 123.512 28.3872 123.512 25.5963C123.512 22.8053 121.186 21.0609 118.744 21.0609ZM118.86 28.0384H115.72V23.0379H118.86C120.488 23.0379 121.419 24.4334 121.419 25.48C121.419 26.6429 120.488 28.0384 118.86 28.0384ZM132.234 25.9451C130.605 25.9451 128.977 26.6429 128.396 28.1546L130.373 28.9687C130.838 28.1546 131.536 27.9221 132.35 27.9221C133.513 27.9221 134.559 28.6198 134.676 29.7827V29.899C134.327 29.6664 133.396 29.3176 132.466 29.3176C130.373 29.3176 128.28 30.4804 128.28 32.5737C128.28 34.5506 130.024 35.8298 131.885 35.8298C133.396 35.8298 134.094 35.1321 134.676 34.4343H134.792V35.5972H136.885V30.0153C136.653 27.3406 134.792 25.9451 132.234 25.9451ZM132.001 33.8529C131.303 33.8529 130.257 33.504 130.257 32.5737C130.257 31.4108 131.536 31.0619 132.582 31.0619C133.513 31.0619 133.978 31.2945 134.559 31.5271C134.443 32.9225 133.28 33.8529 132.001 33.8529ZM144.328 26.294L141.886 32.5737H141.769L139.211 26.294H136.885L140.723 35.1321L138.513 40.0162H140.723L146.653 26.294H144.328ZM124.791 35.5972H127V21.0609H124.791V35.5972Z" fill="#00004E99"/>
<path d="M12.5712 9.43164C12.2223 9.78051 11.9897 10.362 11.9897 11.0597V36.7598C11.9897 37.4576 12.2223 38.039 12.5712 38.3879L12.6875 38.5042L27.1075 24.0842V23.9679V23.7353L12.5712 9.43164Z" fill="#5BC9F4"/>
<path d="M31.7586 28.8524L26.9907 24.0845V23.9682V23.7357L31.7586 18.9678L31.8749 19.0841L37.5731 22.3402C39.2012 23.2705 39.2012 24.7823 37.5731 25.7126L31.7586 28.8524Z" fill="url(#paint0_linear_477_54347)"/>
<path d="M31.8745 28.8529L26.9903 23.9688L12.5703 38.3887C13.1518 38.9702 13.9658 38.9702 15.0124 38.505L31.8745 28.8529Z" fill="url(#paint1_linear_477_54347)"/>
<path d="M31.8746 18.968L14.8962 9.31587C13.8496 8.73442 13.0356 8.85071 12.4541 9.43216L26.9904 23.9684L31.8746 18.968Z" fill="url(#paint2_linear_477_54347)"/>
<path d="M145.476 13.7354C145.451 12.913 145.417 12.1746 145.375 11.52C145.341 10.857 145.304 10.2402 145.262 9.66959C145.228 9.09895 145.19 8.54929 145.148 8.0206C145.106 7.49192 145.056 6.94225 144.997 6.37161C144.972 6.16181 145.006 5.97719 145.098 5.81775C145.199 5.6583 145.341 5.53662 145.526 5.4527C145.719 5.36039 145.933 5.30585 146.168 5.28906C146.227 5.51564 146.298 5.7632 146.382 6.03174C146.466 6.29189 146.558 6.55623 146.659 6.82477L146.256 7.13946C146.281 7.65136 146.294 8.2304 146.294 8.87657C146.302 9.52274 146.298 10.2402 146.281 11.0291C146.273 11.8179 146.248 12.6865 146.206 13.6347L145.476 13.7354Z" fill="#00004E99"/>
<path d="M135.914 13.7362C135.847 13.7362 135.813 13.7027 135.813 13.6355V12.5278C135.813 12.4607 135.847 12.4271 135.914 12.4271C136.526 12.4271 137.055 12.4103 137.5 12.3768C137.953 12.3432 138.372 12.2719 138.759 12.1628C139.187 12.0201 139.531 11.9152 139.791 11.8481C140.051 11.7725 140.261 11.718 140.42 11.6844C140.294 11.6089 140.164 11.5292 140.03 11.4453C139.904 11.3613 139.778 11.2732 139.652 11.1809C139.359 10.9711 139.115 10.8285 138.922 10.7529C138.729 10.669 138.536 10.6271 138.343 10.6271C138.091 10.6271 137.861 10.6606 137.651 10.7278C137.441 10.7949 137.189 10.925 136.896 11.118C136.82 11.0424 136.757 10.9417 136.707 10.8159C136.665 10.69 136.644 10.5683 136.644 10.4508C136.644 10.0984 136.799 9.81305 137.11 9.59486C137.42 9.37667 137.814 9.26758 138.293 9.26758C138.561 9.26758 138.821 9.31793 139.073 9.41863C139.333 9.51094 139.627 9.67458 139.954 9.90955C140.357 10.1865 140.714 10.4047 141.024 10.5641C141.343 10.7236 141.7 10.8536 142.094 10.9543C142.287 10.9963 142.51 11.0299 142.761 11.055C143.013 11.0802 143.294 11.0928 143.605 11.0928L143.001 12.2886C142.782 12.2719 142.585 12.2551 142.409 12.2383C142.241 12.2215 142.048 12.2173 141.83 12.2257C141.637 12.2425 141.436 12.2802 141.226 12.339C141.024 12.3893 140.81 12.4649 140.584 12.5656C140.366 12.6663 140.126 12.7879 139.866 12.9306C139.539 13.1152 139.241 13.2621 138.973 13.3712C138.704 13.4719 138.427 13.5516 138.142 13.6103C137.856 13.6607 137.533 13.6943 137.172 13.7111C136.82 13.7278 136.4 13.7362 135.914 13.7362Z" fill="#00004E99"/>
<path d="M130.612 13.811C130.235 13.811 129.84 13.7858 129.429 13.7355C129.018 13.6851 128.619 13.6096 128.233 13.5089C127.847 13.4082 127.503 13.2823 127.201 13.1313C127.167 13.1648 127.134 13.2026 127.1 13.2446C127.067 13.2781 127.029 13.3075 126.987 13.3327C126.819 13.4669 126.609 13.5677 126.357 13.6348C126.106 13.7019 125.837 13.7355 125.552 13.7355C125.485 13.7355 125.451 13.7019 125.451 13.6348V12.5271C125.451 12.4599 125.485 12.4264 125.552 12.4264C125.862 12.4264 126.106 12.4012 126.282 12.3508C126.467 12.3005 126.626 12.2082 126.76 12.0739C126.895 11.9312 127.033 11.7298 127.176 11.4697C127.209 11.411 127.239 11.3522 127.264 11.2935C127.297 11.2347 127.331 11.176 127.365 11.1172C127.482 10.9158 127.654 10.8151 127.881 10.8151C127.998 10.8151 128.12 10.8571 128.246 10.941C128.162 11.1508 128.082 11.348 128.006 11.5326C127.931 11.7173 127.86 11.8893 127.792 12.0487C127.885 12.0823 127.977 12.1159 128.069 12.1494C128.162 12.183 128.254 12.2166 128.346 12.2501C129.194 11.1256 129.953 10.2948 130.625 9.75776C131.271 9.22069 131.854 8.95215 132.374 8.95215C132.567 8.95215 132.781 9.01089 133.016 9.12838C133.26 9.23747 133.503 9.38852 133.746 9.58154C133.99 9.76616 134.204 9.96756 134.388 10.1857C134.665 10.5214 134.804 10.8025 134.804 11.0291C134.804 11.39 134.72 11.7131 134.552 11.9984C134.821 12.1578 135.06 12.2711 135.27 12.3383C135.488 12.397 135.735 12.4264 136.012 12.4264C136.088 12.4264 136.126 12.4599 136.126 12.5271V13.6348C136.126 13.7019 136.088 13.7355 136.012 13.7355C135.635 13.7355 135.261 13.6558 134.892 13.4963C134.523 13.3369 134.2 13.1103 133.923 12.8166C133.713 12.9928 133.423 13.1606 133.054 13.3201C132.693 13.4795 132.303 13.6012 131.884 13.6851C131.665 13.7187 131.451 13.7481 131.242 13.7733C131.032 13.7984 130.822 13.811 130.612 13.811ZM130.738 12.5648C131.325 12.5648 131.888 12.4893 132.425 12.3383C132.962 12.1788 133.532 11.9438 134.137 11.6333C133.801 11.1886 133.453 10.8571 133.092 10.6389C132.739 10.4123 132.395 10.299 132.06 10.299C131.682 10.299 131.237 10.4837 130.725 10.8529C130.214 11.2137 129.668 11.734 129.089 12.4138C129.383 12.4641 129.664 12.5019 129.932 12.5271C130.209 12.5522 130.478 12.5648 130.738 12.5648Z" fill="#00004E99"/>
<path d="M121.042 17.0208C120.304 17.0208 119.733 16.8068 119.33 16.3789C118.936 15.9509 118.739 15.3299 118.739 14.5159C118.739 14.3648 118.747 14.2054 118.764 14.0375C118.789 13.8697 118.823 13.6809 118.865 13.4711C118.907 13.2613 118.961 13.0221 119.028 12.7536L119.557 12.8795C119.456 13.2487 119.406 13.5718 119.406 13.8487C119.406 14.4529 119.544 14.9103 119.821 15.2208C120.107 15.5313 120.522 15.6865 121.068 15.6865C121.521 15.6865 121.94 15.6362 122.326 15.5355C122.712 15.4348 123.069 15.2753 123.396 15.0571C123.665 14.8809 123.904 14.6669 124.114 14.4152L123.824 12.7536C123.74 12.2669 123.644 11.7256 123.535 11.1298C123.434 10.5256 123.325 9.86261 123.207 9.14091C123.174 8.88916 123.132 8.62901 123.082 8.36047C123.04 8.08354 122.998 7.8192 122.956 7.56744C122.922 7.3073 122.889 7.08072 122.855 6.88771C122.83 6.69469 122.817 6.55623 122.817 6.47231C122.817 6.14503 122.926 5.87229 123.144 5.65411C123.371 5.42753 123.656 5.30585 124 5.28906C124.059 5.54082 124.131 5.80096 124.214 6.0695C124.298 6.32965 124.386 6.5814 124.479 6.82477L124.114 7.1017C124.231 8.18424 124.332 9.14511 124.416 9.98429C124.5 10.8235 124.571 11.5452 124.63 12.1494C124.957 12.334 125.301 12.4263 125.662 12.4263C125.729 12.4263 125.763 12.4599 125.763 12.527V13.6347C125.763 13.7019 125.729 13.7354 125.662 13.7354C125.503 13.7354 125.347 13.7187 125.196 13.6851C125.045 13.6431 124.89 13.5802 124.731 13.4963L124.743 13.9368C124.743 14.4823 124.575 14.9942 124.24 15.4725C123.912 15.9509 123.463 16.3285 122.893 16.6054C122.607 16.7481 122.309 16.853 121.999 16.9201C121.697 16.9873 121.378 17.0208 121.042 17.0208Z" fill="#00004E99"/>
<path d="M108.662 13.7347C108.595 13.7347 108.562 13.7012 108.562 13.634V12.5263C108.562 12.4592 108.595 12.4256 108.662 12.4256C108.864 12.4256 109.061 12.4256 109.254 12.4256C109.455 12.4172 109.652 12.413 109.845 12.413C109.72 12.2871 109.615 12.1445 109.531 11.985C109.455 11.8172 109.417 11.6452 109.417 11.4689C109.417 11.2172 109.464 10.9528 109.556 10.6759C109.657 10.3906 109.791 10.1221 109.959 9.8703C110.127 9.61015 110.315 9.39616 110.525 9.22833C110.844 8.98496 111.167 8.86328 111.494 8.86328C111.788 8.86328 112.082 8.9514 112.376 9.12762C112.678 9.30385 113.001 9.57239 113.345 9.93324L113.093 10.4116C112.808 10.3025 112.569 10.227 112.376 10.185C112.183 10.143 111.994 10.1221 111.809 10.1221C111.524 10.1221 111.259 10.1556 111.016 10.2228C110.773 10.2899 110.517 10.3948 110.248 10.5374C110.257 10.8647 110.328 11.1626 110.462 11.4312C110.605 11.6913 110.811 11.9095 111.079 12.0857C111.255 12.1864 111.448 12.2578 111.658 12.2997C112.027 12.2662 112.367 12.2242 112.678 12.1739C112.988 12.1235 113.299 12.0522 113.609 11.9599C113.92 11.8592 114.251 11.7417 114.604 11.6074C114.671 11.6578 114.717 11.7417 114.742 11.8592C114.776 11.9683 114.792 12.069 114.792 12.1613C114.792 12.3459 114.755 12.5095 114.679 12.6522C114.604 12.7949 114.495 12.9039 114.352 12.9795C114.285 13.0046 114.155 13.0466 113.962 13.1053C113.769 13.1557 113.529 13.2102 113.244 13.269C112.522 13.4284 111.805 13.5459 111.092 13.6214C110.378 13.697 109.569 13.7347 108.662 13.7347Z" fill="#00004E99"/>
<path d="M105.575 13.7354C105.508 13.7354 105.475 13.7019 105.475 13.6347V12.527C105.475 12.4599 105.508 12.4263 105.575 12.4263C105.793 12.4263 106.003 12.4053 106.205 12.3634C106.414 12.313 106.616 12.2459 106.809 12.162C106.733 11.6165 106.649 10.9787 106.557 10.2486C106.473 9.51854 106.389 8.69614 106.305 7.78143C106.272 7.5045 106.242 7.22757 106.217 6.95064C106.192 6.66532 106.167 6.3758 106.142 6.08209C106.335 5.92265 106.536 5.77998 106.746 5.65411C106.964 5.52823 107.187 5.40655 107.413 5.28906C107.413 5.62474 107.413 6.06531 107.413 6.61077C107.413 7.14785 107.409 7.75206 107.401 8.42341C107.401 9.09475 107.401 9.79547 107.401 10.5256C107.401 10.8612 107.401 11.1508 107.401 11.3941C107.401 11.6291 107.405 11.8557 107.413 12.0739C107.774 12.3088 108.223 12.4263 108.76 12.4263C108.836 12.4263 108.873 12.4599 108.873 12.527V13.6347C108.873 13.7019 108.836 13.7354 108.76 13.7354C108.089 13.7354 107.585 13.5886 107.249 13.2949C107.023 13.4291 106.771 13.5382 106.494 13.6221C106.217 13.6977 105.911 13.7354 105.575 13.7354Z" fill="#00004E99"/>
<path d="M101.041 13.7358C100.974 13.7358 100.94 13.7022 100.94 13.6351V12.5274C100.94 12.4602 100.974 12.4267 101.041 12.4267C101.486 12.4267 101.88 12.4141 102.224 12.3889C102.568 12.3553 102.841 12.284 103.043 12.1749C103.185 12.0994 103.307 11.9777 103.408 11.8099C103.508 11.642 103.643 11.3945 103.81 11.0672C103.911 10.8574 104.003 10.7273 104.087 10.677C104.18 10.6182 104.289 10.5889 104.415 10.5889C104.582 10.5889 104.729 10.6392 104.855 10.7399C104.788 10.9078 104.717 11.0756 104.641 11.2434C104.566 11.4113 104.494 11.5665 104.427 11.7092C104.368 11.8518 104.318 11.9651 104.276 12.049C104.503 12.1833 104.729 12.2798 104.956 12.3386C105.191 12.3973 105.434 12.4267 105.686 12.4267C105.753 12.4267 105.787 12.4602 105.787 12.5274V13.6351C105.787 13.7022 105.753 13.7358 105.686 13.7358C104.998 13.7358 104.373 13.4631 103.81 12.9176L103.672 13.1064C103.546 13.2659 103.361 13.3917 103.118 13.484C102.875 13.5764 102.577 13.6435 102.224 13.6855C101.88 13.719 101.486 13.7358 101.041 13.7358ZM104.339 16.1904C103.978 15.9051 103.693 15.6449 103.483 15.41C103.727 15.1918 104.003 14.9023 104.314 14.5414C104.348 14.5666 104.427 14.6421 104.553 14.768C104.679 14.9023 104.859 15.0869 105.094 15.3219C105.01 15.4393 104.906 15.5694 104.78 15.7121C104.654 15.8631 104.507 16.0226 104.339 16.1904ZM102.589 16.3792C102.388 16.2198 102.216 16.0729 102.073 15.9387C101.931 15.8044 101.813 15.6869 101.721 15.5862C101.855 15.4603 101.994 15.3219 102.136 15.1708C102.279 15.0281 102.422 14.8771 102.564 14.7176C102.615 14.7764 102.703 14.8687 102.829 14.9946C102.963 15.1288 103.135 15.2967 103.345 15.4981C103.244 15.6407 103.131 15.7834 103.005 15.9261C102.879 16.0771 102.74 16.2282 102.589 16.3792Z" fill="#00004E99"/>
<path d="M101.154 13.7363C100.642 13.7363 100.231 13.6524 99.9204 13.4846C99.6099 13.3083 99.4253 13.065 99.3666 12.7545L99.2784 12.3517L98.7875 13.3335C98.5693 13.3083 98.3805 13.2874 98.2211 13.2706C98.0616 13.2454 97.9148 13.2202 97.7805 13.1951C97.6546 13.1615 97.5288 13.1195 97.4029 13.0692C97.2099 13.002 97.0127 12.9097 96.8113 12.7922C96.6098 12.6748 96.4378 12.5531 96.2952 12.4272C96.1609 12.3013 96.0938 12.1922 96.0938 12.0999C96.0938 12.0244 96.1189 11.9027 96.1693 11.7349C96.228 11.5586 96.2952 11.3782 96.3707 11.1936C96.4462 11.009 96.5091 10.8705 96.5595 10.7782C96.635 10.6272 96.7777 10.4593 96.9875 10.2747C97.2141 10.0649 97.4826 9.8593 97.7931 9.6579C98.112 9.45649 98.4015 9.30125 98.6616 9.19215L98.5987 8.73899C98.7833 8.59633 98.9386 8.47885 99.0645 8.38654C99.1903 8.29423 99.3078 8.21031 99.4169 8.13478C99.5344 8.05926 99.6561 7.98373 99.782 7.9082C99.7903 8.60472 99.7987 9.30125 99.8071 9.99777C99.8155 10.6943 99.8197 11.3908 99.8197 12.0873C100.223 12.3139 100.667 12.4272 101.154 12.4272C101.221 12.4272 101.255 12.4608 101.255 12.5279V13.6356C101.255 13.7028 101.221 13.7363 101.154 13.7363ZM99.1903 11.9866C99.14 11.7433 99.0854 11.4747 99.0267 11.181C98.968 10.8789 98.905 10.5558 98.8379 10.2118C97.9819 10.4971 97.3357 10.8705 96.8994 11.3321C97.1511 11.5251 97.4029 11.6635 97.6546 11.7475C97.9064 11.823 98.1539 11.8817 98.3973 11.9237C98.5232 11.9405 98.6491 11.9531 98.7749 11.9615C98.9092 11.9698 99.0477 11.9782 99.1903 11.9866Z" fill="#00004E99"/>
<path d="M91.1665 13.8122C90.8057 13.8122 90.4364 13.7828 90.0588 13.7241C89.6812 13.6653 89.3203 13.5814 88.9763 13.4723C88.6322 13.3548 88.3301 13.2289 88.0699 13.0947C87.8685 13.3213 87.6503 13.4849 87.4154 13.5856C87.1888 13.6863 86.9119 13.7367 86.5846 13.7367C86.5175 13.7367 86.4839 13.7031 86.4839 13.636V12.5282C86.4839 12.4611 86.5175 12.4275 86.5846 12.4275C86.9203 12.4275 87.2098 12.352 87.4531 12.201C87.6965 12.0415 87.8979 11.8065 88.0574 11.496C88.1748 11.2695 88.2755 11.0723 88.3595 10.9044C88.4518 10.7366 88.5357 10.5897 88.6112 10.4638C88.6867 10.3296 88.7623 10.2079 88.8378 10.0988C89.0476 9.82187 89.249 9.62466 89.442 9.50718C89.6434 9.3813 89.8658 9.31836 90.1092 9.31836C90.3945 9.31836 90.6714 9.47361 90.9399 9.78411C91.2169 10.0946 91.4435 10.5016 91.6197 11.0051C91.7875 11.4918 91.8714 11.966 91.8714 12.4275C91.8714 12.6625 91.8043 12.9101 91.67 13.1702C91.5442 13.4304 91.3763 13.6443 91.1665 13.8122ZM90.8015 12.566C90.7763 12.2303 90.7092 11.9156 90.6001 11.6219C90.4994 11.3198 90.3861 11.0806 90.2602 10.9044C90.1343 10.7534 90.021 10.6778 89.9203 10.6778C89.6938 10.6778 89.4882 10.7911 89.3035 11.0177C89.2364 11.1016 89.1525 11.2275 89.0518 11.3953C88.9511 11.5632 88.8378 11.773 88.7119 12.0247C88.9888 12.159 89.2993 12.2723 89.6434 12.3646C89.9875 12.4569 90.3735 12.524 90.8015 12.566Z" fill="#00004E99"/>
<path d="M82.2573 17.0214C81.5272 17.0214 80.9607 16.8074 80.5579 16.3795C80.1635 15.9515 79.9663 15.3305 79.9663 14.5165C79.9663 14.3654 79.9747 14.206 79.9915 14.0381C80.0083 13.8703 80.0376 13.6815 80.0796 13.4717C80.1299 13.2619 80.1887 13.0227 80.2558 12.7542L80.7845 12.8801C80.6754 13.2745 80.6209 13.5976 80.6209 13.8493C80.6209 14.4535 80.7593 14.9109 81.0363 15.2214C81.3216 15.5319 81.7412 15.6871 82.295 15.6871C82.7314 15.6871 83.1342 15.6368 83.5035 15.5361C83.8811 15.4438 84.2252 15.3011 84.5357 15.1081C84.8545 14.9235 85.1315 14.6927 85.3664 14.4158C85.0895 13.8619 84.8545 13.3878 84.6615 12.9934C84.4769 12.5906 84.3846 12.2842 84.3846 12.0745C84.3846 11.7723 84.4727 11.5038 84.6489 11.2688C84.8252 11.0255 85.1105 10.8031 85.5049 10.6017C85.5217 10.736 85.5511 10.9374 85.593 11.2059C85.635 11.466 85.6937 11.7975 85.7693 12.2003C86.0546 12.3514 86.3651 12.4269 86.7007 12.4269C86.7763 12.4269 86.814 12.4605 86.814 12.5276V13.6353C86.814 13.7025 86.7763 13.736 86.7007 13.736C86.5749 13.736 86.449 13.7276 86.3231 13.7109C86.2056 13.6857 86.0881 13.6479 85.9707 13.5976L85.9832 13.9374C85.9832 14.4829 85.8154 14.9948 85.4797 15.4731C85.1525 15.9515 84.6993 16.3291 84.1203 16.606C83.8349 16.7487 83.537 16.8536 83.2265 16.9207C82.916 16.9879 82.5929 17.0214 82.2573 17.0214ZM82.6475 10.7527C82.2363 10.4255 81.9216 10.1317 81.7034 9.8716C81.9048 9.6702 82.081 9.48977 82.2321 9.33033C82.3832 9.17088 82.5132 9.02822 82.6223 8.90234C82.7314 9.01144 82.8573 9.14151 83 9.29256C83.151 9.43522 83.3188 9.59467 83.5035 9.7709C83.4028 9.91356 83.2811 10.0688 83.1384 10.2366C82.9958 10.3961 82.8321 10.5681 82.6475 10.7527Z" fill="#00004E99"/>
<defs>
<linearGradient id="paint0_linear_477_54347" x1="36.5522" y1="23.9298" x2="8.43697" y2="23.9298" gradientUnits="userSpaceOnUse">
<stop stop-color="#FEE000"/>
<stop offset="0.1941" stop-color="#FCCF0B"/>
<stop offset="0.5469" stop-color="#FAB318"/>
<stop offset="0.8279" stop-color="#F9A21B"/>
<stop offset="1" stop-color="#F99B1C"/>
</linearGradient>
<linearGradient id="paint1_linear_477_54347" x1="29.2555" y1="26.5967" x2="2.81182" y2="53.0405" gradientUnits="userSpaceOnUse">
<stop stop-color="#EF4547"/>
<stop offset="1" stop-color="#C6186D"/>
</linearGradient>
<linearGradient id="paint2_linear_477_54347" x1="2.69386" y1="-5.2989" x2="24.2847" y2="16.2919" gradientUnits="userSpaceOnUse">
<stop stop-color="#279E6F"/>
<stop offset="0.3168" stop-color="#4DAB6D"/>
<stop offset="0.7398" stop-color="#6ABA6A"/>
<stop offset="1" stop-color="#74C169"/>
</linearGradient>
</defs>
</svg>
