<svg width="90" height="65" viewBox="0 0 90 65" fill="none" xmlns="http://www.w3.org/2000/svg">
	<path d="M77.0062 41.0709L76.2483 41.0593C75.8896 41.0593 75.69 40.9235 75.69 40.753C75.69 40.5623 75.9214 40.4265 76.1528 40.4265C76.4045 40.4265 76.552 40.5536 76.6359 40.6259L76.9107 40.1722C76.795 39.9613 76.5 39.7619 76.1528 39.7619C75.5627 39.7619 75.2358 40.2155 75.2358 40.6663C75.2358 40.8773 75.2994 41.0131 75.3718 41.0969H75.0564V41.6748H77.0062V41.0651V41.0709ZM80.0842 44.3737C80.3677 44.3737 80.5991 44.131 80.5991 43.8478C80.5991 43.5646 80.3677 43.3219 80.0842 43.3219C79.7775 43.3219 79.5461 43.5646 79.5461 43.8478C79.5461 44.131 79.7775 44.3737 80.0842 44.3737ZM54.8963 43.868C54.8963 44.1627 55.1278 44.3939 55.4344 44.3939C55.7179 44.3939 55.9493 44.1512 55.9493 43.868C55.9493 43.5848 55.7179 43.3421 55.4344 43.3421C55.1278 43.3421 54.8963 43.5848 54.8963 43.868ZM47.4907 49.0462V41.5852H46.5853V49.0462H47.4907ZM36.7352 48.971C36.3967 48.971 36.1566 49.234 36.1566 49.549C36.1566 49.8639 36.3996 50.1269 36.7352 50.1269C37.0708 50.1269 37.3051 49.8524 37.3051 49.549C37.3051 49.2455 37.0621 48.971 36.7352 48.971ZM53.5165 43.868C53.5165 44.1512 53.7595 44.3939 54.0545 44.3939C54.3496 44.3939 54.5695 44.1627 54.5695 43.868C54.5695 43.5733 54.3496 43.3421 54.0545 43.3421C53.7595 43.3421 53.5165 43.5848 53.5165 43.868ZM85.6239 41.5852H84.7185V49.0462H85.6239V41.5852ZM11.8135 48.003C12.0247 48.7196 12.6669 49.0433 13.5521 49.0433H18.9038V47.9077H16.7458C15.9358 47.9077 15.0911 47.454 15.0911 46.5495C15.0911 45.856 15.661 45.2752 16.4912 45.2752C17.1971 45.2752 17.7236 45.6971 17.9666 45.9601L18.493 45.203C18.3021 44.888 17.6715 44.1396 16.5751 44.1396C15.1229 44.1396 14.2464 45.307 14.2464 46.486C14.2464 47.1159 14.4662 47.5898 14.8481 47.9077H13.5955C12.7537 47.9077 12.3516 47.7487 12.3516 46.7489V45.2666H11.9726C11.6949 45.2666 11.4693 45.492 11.4693 45.7694V46.7692C11.4577 47.7574 10.9833 47.9048 10.2254 47.9048C9.49926 47.9048 9.00459 47.7574 9.00459 46.7778V43.0965H8.13095V43.8449C5.59105 44.3188 4.67692 45.307 4.67692 46.5582C4.67692 47.6736 5.45509 48.3902 6.60354 48.3902C7.49742 48.3902 7.98342 48.0001 8.21484 47.4858C8.37395 48.4856 8.93227 49.0317 10.1849 49.0433C11.0267 49.0433 11.6168 48.6445 11.8164 48.003H11.8135ZM6.71347 47.2459C6.00762 47.2459 5.48113 46.983 5.48113 46.4253C5.48113 45.8358 6.1349 45.2146 8.12517 44.8562V46.5178L8.13674 46.6767C7.97763 46.9599 7.51478 47.2459 6.71347 47.2459ZM12.0652 50.3407C12.0652 50.6354 12.2966 50.8666 12.6033 50.8666C12.8868 50.8666 13.1182 50.6239 13.1182 50.3407C13.1182 50.0575 12.8868 49.8148 12.6033 49.8148C12.2966 49.8148 12.0652 50.0575 12.0652 50.3407ZM7.11557 41.9233C7.11557 42.218 7.347 42.4492 7.65364 42.4492C7.93713 42.4492 8.16856 42.2065 8.16856 41.9233C8.16856 41.6401 7.93713 41.3974 7.65364 41.3974C7.347 41.3974 7.11557 41.6401 7.11557 41.9233ZM6.27087 41.3974C5.9758 41.3974 5.7328 41.6401 5.7328 41.9233C5.7328 42.2065 5.9758 42.4492 6.27087 42.4492C6.56593 42.4492 6.78579 42.218 6.78579 41.9233C6.78579 41.6286 6.56593 41.3974 6.27087 41.3974ZM10.6853 50.3407C10.6853 50.6239 10.9283 50.8666 11.2234 50.8666C11.5185 50.8666 11.7383 50.6354 11.7383 50.3407C11.7383 50.046 11.5185 49.8148 11.2234 49.8148C10.9283 49.8148 10.6853 50.0575 10.6853 50.3407ZM8.33634 29.4287C9.71333 30.2089 11.2639 30.599 12.988 30.599C14.177 30.599 15.2907 30.3707 16.3292 29.917C17.3677 29.4633 18.1777 28.8508 18.7592 28.0821V29.8997C18.7592 31.2751 18.3224 32.3674 17.4487 33.1851C16.5751 34 15.3804 34.4075 13.8645 34.4075C12.6987 34.4075 11.747 34.1907 11.0151 33.7602C10.3845 33.3903 9.92161 32.8846 9.62654 32.2489H4.93728C5.17449 33.3701 5.64891 34.3468 6.36055 35.1761C7.14161 36.0834 8.16856 36.7827 9.43851 37.271C10.7085 37.7594 12.1375 38.005 13.7228 38.005C15.6349 38.005 17.3186 37.6727 18.7765 37.0081C20.2345 36.3435 21.3714 35.3899 22.1872 34.1445C23.003 32.8991 23.4108 31.4138 23.4108 29.6887V12.0102H20.5441C19.5576 12.0102 18.7592 12.8077 18.7592 13.7931V14.1051C18.1286 13.3827 17.307 12.8077 16.2945 12.3743C15.2791 11.9437 14.1538 11.727 12.9186 11.727C11.1916 11.727 9.65258 12.1229 8.30163 12.9146C6.94779 13.7064 5.8948 14.8189 5.13688 16.2521C4.37896 17.6853 4 19.3555 4 21.2656C4 23.1756 4.37896 24.7591 5.13688 26.1576C5.8948 27.5562 6.96225 28.6456 8.33634 29.4258V29.4287ZM9.29965 18.3355C9.73068 17.4975 10.3324 16.8445 11.1019 16.3792C11.8714 15.914 12.745 15.68 13.7257 15.68C14.7063 15.68 15.5453 15.914 16.3148 16.3792C17.0842 16.8445 17.6831 17.4975 18.117 18.3355C18.548 19.1735 18.765 20.1184 18.765 21.1644C18.765 22.2105 18.5538 23.1207 18.1343 23.9587C17.7149 24.7966 17.1132 25.4497 16.3321 25.9149C15.551 26.3801 14.6832 26.6142 13.7257 26.6142C12.7682 26.6142 11.8714 26.3859 11.1019 25.9323C10.3324 25.4786 9.73068 24.8255 9.29965 23.976C8.86862 23.1265 8.65166 22.1758 8.65166 21.1297C8.65166 20.0837 8.86573 19.1735 9.29965 18.3355ZM31.6149 43.8478C31.6149 43.5646 31.3835 43.3219 31.1 43.3219C30.7933 43.3219 30.5619 43.5646 30.5619 43.8478C30.5619 44.131 30.7933 44.3737 31.1 44.3737C31.3835 44.3737 31.6149 44.131 31.6149 43.8478ZM66.3895 10.4613C67.8996 10.4613 69.1233 9.23904 69.1233 7.73067C69.1233 6.2223 67.8996 5 66.3895 5C64.8795 5 63.6558 6.2223 63.6558 7.73067C63.6558 9.23904 64.8795 10.4613 66.3895 10.4613ZM64.0608 14.9865V31.3705H68.7125V12.0131H67.0346C65.3915 12.0131 64.0579 13.3452 64.0579 14.9865H64.0608ZM55.6224 49.0462C58.0669 49.0462 58.9405 48.0781 58.9405 46.4166C58.9405 45.6162 58.7612 44.8071 58.6021 44.1859L57.7371 44.4055C57.9049 45.0903 58.064 45.8271 58.064 46.5322C58.064 47.4569 57.3147 47.9105 55.5993 47.9105H53.6727C52.1019 47.9105 51.3237 47.4251 51.3237 46.3415C51.3237 45.8589 51.451 45.3937 51.6709 44.8158L50.9129 44.5413C50.6179 45.203 50.4588 45.9514 50.4588 46.5611C50.4588 48.1908 51.3555 49.0433 53.6293 49.0433H55.6196L55.6224 49.0462ZM76.4913 46.8674V42.2787H75.5858V47.2026C75.5858 48.5174 76.4913 49.0433 77.6513 49.0433H77.6571H77.6629C78.5047 49.0433 79.0948 48.6445 79.2944 48.003C79.5056 48.7196 80.1478 49.0433 81.033 49.0433C82.2538 49.0433 83.1911 48.3902 83.1911 46.7923V41.5852H82.2856V46.8992C82.2856 47.7516 81.8112 47.9105 81.0735 47.9105C80.2317 47.9105 79.8296 47.7516 79.8296 46.7518V45.2695H79.4506C79.1729 45.2695 78.9473 45.4948 78.9473 45.7722V46.772C78.9357 47.7603 78.4613 47.9077 77.7034 47.9077C76.9975 47.9077 76.4913 47.7487 76.4913 46.8674ZM78.7043 44.3737C79.0109 44.3737 79.2192 44.1425 79.2192 43.8478C79.2192 43.553 78.9994 43.3219 78.7043 43.3219C78.4092 43.3219 78.1662 43.5646 78.1662 43.8478C78.1662 44.131 78.4092 44.3737 78.7043 44.3737ZM66.5689 50.8666C66.8755 50.8666 67.0838 50.6354 67.0838 50.3407C67.0838 50.046 66.864 49.8148 66.5689 49.8148C66.2738 49.8148 66.0308 50.0575 66.0308 50.3407C66.0308 50.6239 66.2738 50.8666 66.5689 50.8666ZM63.8815 44.3737C64.2083 44.3737 64.4513 44.0992 64.4513 43.7958C64.4513 43.4923 64.2083 43.2178 63.8815 43.2178C63.5546 43.2178 63.3029 43.4808 63.3029 43.7958C63.3029 44.1107 63.5459 44.3737 63.8815 44.3737ZM56.7969 27.299C56.2589 27.7065 55.527 27.9116 54.5926 27.9116C53.5425 27.9116 52.6978 27.6545 52.0556 27.143C51.4134 26.6315 51.0691 25.9207 51.0229 25.0105H46.5101C46.5795 26.3397 46.9642 27.4984 47.6643 28.4867C48.3644 29.4778 49.3074 30.2522 50.4964 30.8099C51.6853 31.3705 53.0507 31.6479 54.5897 31.6479C56.0361 31.6479 57.3292 31.3907 58.4719 30.8792C59.6145 30.3678 60.4998 29.6627 61.1304 28.7641C61.761 27.8683 62.0734 26.802 62.0734 25.5653C62.0734 24.1205 61.7408 22.9906 61.0754 22.1758C60.4101 21.3609 59.6174 20.7714 58.6975 20.4102C57.7747 20.049 56.6031 19.7052 55.1827 19.3786C54.2975 19.1937 53.609 19.0117 53.1202 18.8383C52.6313 18.6649 52.2292 18.4424 51.9138 18.1737C51.5985 17.9049 51.4423 17.538 51.4423 17.0727C51.4423 16.5382 51.6737 16.099 52.1424 15.7609C52.6081 15.4228 53.2272 15.2552 53.9967 15.2552C54.905 15.2552 55.6572 15.4835 56.2531 15.9371C56.849 16.3908 57.2019 16.9918 57.3205 17.7374H61.7292C61.6366 16.5035 61.2635 15.4372 60.6097 14.5386C59.9559 13.6428 59.0591 12.9493 57.9165 12.4581C56.7738 11.9697 55.4344 11.7241 53.8925 11.7241C52.5647 11.7241 51.3671 11.9639 50.3083 12.4407C49.2467 12.9175 48.4367 13.5821 47.8784 14.4317C47.32 15.2812 47.0394 16.2319 47.0394 17.2808C47.0394 18.5869 47.3548 19.6214 47.9825 20.39C48.6131 21.1586 49.3595 21.7134 50.2215 22.0486C51.0836 22.3867 52.2147 22.719 53.6148 23.0455C54.5232 23.3027 55.2406 23.5166 55.7671 23.6928C56.2907 23.8662 56.7304 24.1118 57.0775 24.4268C57.4276 24.7417 57.6011 25.155 57.6011 25.6664C57.6011 26.3426 57.3321 26.8829 56.7969 27.2904V27.299ZM72.5628 44.7522C71.3941 44.7522 70.5292 45.5729 70.1618 47.1304C69.9506 47.8036 69.4241 47.9077 68.941 47.9077C68.0992 47.9077 67.6971 47.7487 67.6971 46.7489V45.2666H67.3181C67.0404 45.2666 66.8148 45.492 66.8148 45.7694V46.7692C66.8032 47.7574 66.3288 47.9048 65.5709 47.9048C64.7291 47.9048 64.327 47.7458 64.327 46.746V45.2637H63.948C63.6703 45.2637 63.4446 45.4891 63.4446 45.7665V46.7663C63.4331 47.7516 62.9644 47.9019 62.2123 47.9019C61.4717 47.9134 60.9597 47.7487 60.9597 46.8616V41.5794H60.0543V47.2199C60.0543 48.4914 60.9076 49.0404 62.1168 49.0404C62.9818 49.0548 63.5893 48.6503 63.7947 47.9972C64.0059 48.7139 64.6481 49.0404 65.5333 49.0404C66.3751 49.0404 66.9652 48.6416 67.1648 48.0001C67.376 48.7167 68.0182 49.0404 68.9034 49.0404C69.6093 49.0404 70.1994 48.7139 70.4424 48.1244C70.5697 48.4047 70.8358 48.6792 71.2263 48.8641C71.5127 48.997 71.8657 49.0837 72.2851 49.0837C73.665 49.0837 74.5184 48.2429 74.5184 46.9888C74.5184 45.7347 73.7171 44.7464 72.5686 44.7464L72.5628 44.7522ZM72.3922 47.9626C71.5272 47.9626 71.0643 47.6476 70.8763 47.3326C71.1193 46.4397 71.6661 45.8792 72.4471 45.8792C73.1645 45.8792 73.6997 46.4166 73.6997 47.0986C73.6997 47.6129 73.2253 47.9626 72.3922 47.9626ZM36.9666 45.4688C36.0091 44.9429 35.419 44.469 34.3862 44.469C33.4171 44.469 32.6795 44.9632 32.4365 45.3012L32.8154 46.0496C33.0989 45.8589 33.5849 45.5873 34.2908 45.5873C35.0603 45.5873 35.6591 45.9254 36.5674 46.3559C36.6831 46.4195 36.7988 46.4831 36.9146 46.5351C35.824 47.1535 34.9445 47.4973 34.1866 47.6852C33.3853 47.8845 32.7229 47.9134 32.0893 47.9134C31.2446 47.9134 30.8454 47.7545 30.8454 46.7547V45.2723H30.4664C30.1887 45.2723 29.9631 45.4977 29.9631 45.7751V46.7749C29.9631 46.8241 29.9631 46.8732 29.9573 46.9165C29.9023 47.7747 29.4424 47.9105 28.725 47.9105C28.0394 47.9134 27.7298 47.6765 27.5071 46.827C27.1281 45.4486 26.4339 44.7551 25.4098 44.7551C24.0733 44.7551 23.1245 45.882 23.1245 47.2373C23.1245 47.3326 23.1245 47.4164 23.136 47.5002C22.9191 47.8036 22.4823 47.9163 21.9471 47.9105C21.2297 47.9134 20.7321 47.7401 20.7321 46.8703V41.5881H19.8266V47.2286C19.8266 48.5087 20.6887 49.0548 21.9066 49.049C22.5633 49.0577 23.1389 48.7948 23.4282 48.3238C23.7667 48.8092 24.3539 49.0924 25.1668 49.0924C26.1359 49.0924 26.7897 48.6185 27.0616 48.1244C27.3248 48.7341 27.915 49.0519 28.6555 49.049C29.399 49.0548 29.9486 48.7514 30.209 48.2457C30.2466 48.1706 30.2813 48.0926 30.3073 48.0088C30.5185 48.7254 31.1607 49.049 32.0459 49.049C33.8163 49.049 35.2049 48.6907 37.5539 47.0494H39.3879L39.4631 45.8705H38.3262C37.7159 45.8705 37.5249 45.7867 36.9666 45.4717V45.4688ZM25.2536 47.9626C24.4002 47.9626 23.9373 47.6158 23.9373 47.1217C23.9373 46.4166 24.5159 45.8907 25.2738 45.8907C26.0317 45.8907 26.5177 46.46 26.7376 47.3413C26.5467 47.6476 26.0954 47.9626 25.2536 47.9626ZM67.9488 49.8148C67.6421 49.8148 67.4107 50.0575 67.4107 50.3407C67.4107 50.6239 67.6421 50.8666 67.9488 50.8666C68.2323 50.8666 68.4637 50.6239 68.4637 50.3407C68.4637 50.0575 68.2323 49.8148 67.9488 49.8148ZM30.235 43.8478C30.235 43.5646 30.0152 43.3219 29.7201 43.3219C29.425 43.3219 29.182 43.5646 29.182 43.8478C29.182 44.131 29.425 44.3737 29.7201 44.3737C30.0152 44.3737 30.235 44.1425 30.235 43.8478ZM40.7013 13.0071C39.1739 12.1575 37.4295 11.7328 35.471 11.7328C33.5126 11.7328 31.7682 12.1575 30.2408 13.0071C28.7134 13.8566 27.5187 15.0385 26.6566 16.5526C25.7945 18.0668 25.3635 19.7803 25.3635 21.6903C25.3635 23.6004 25.7945 25.3139 26.6566 26.828C27.5187 28.3422 28.7163 29.524 30.2408 30.3736C31.7682 31.2231 33.5126 31.6479 35.471 31.6479C37.4295 31.6479 39.1739 31.2231 40.7013 30.3736C42.2287 29.524 43.4234 28.3422 44.2855 26.828C45.1475 25.3139 45.5786 23.6004 45.5786 21.6903C45.5786 19.7803 45.1475 18.0668 44.2855 16.5526C43.4234 15.0385 42.2258 13.8566 40.7013 13.0071ZM40.195 24.8198C39.7293 25.7155 39.0928 26.4148 38.2886 26.9147C37.4844 27.4146 36.5211 27.666 35.4739 27.666C34.4267 27.666 33.4634 27.4146 32.6592 26.9147C31.855 26.4148 31.2186 25.7155 30.7528 24.8198C30.2871 23.924 30.0528 22.878 30.0528 21.6903C30.0528 20.5027 30.2871 19.4596 30.7528 18.5609C31.2186 17.6651 31.855 16.9658 32.6592 16.4659C33.4634 15.966 34.4267 15.7146 35.4739 15.7146C36.5211 15.7146 37.4844 15.966 38.2886 16.4659C39.0928 16.9658 39.7293 17.6651 40.195 18.5609C40.6608 19.4567 40.8951 20.5027 40.8951 21.6903C40.8951 22.878 40.6608 23.9211 40.195 24.8198ZM44.3723 45.7C44.9942 45.1308 45.1215 44.6164 45.1215 43.6917V41.5881H44.216V44.1541C44.1842 44.5846 44.0801 44.8707 43.7619 45.2059C42.9606 44.5962 41.7282 43.7437 40.2442 42.6688L39.7293 43.5328C41.2133 44.5326 42.2142 45.2377 43.0271 45.8358L40.3397 47.9626V49.0462H43.1197C44.4677 49.0462 45.2893 48.4885 45.2893 47.3095C45.2893 46.7316 44.9219 46.1941 44.3723 45.7ZM43.1833 47.9105H41.4968L43.6346 46.2895C44.1293 46.6478 44.4764 46.9628 44.4764 47.3529C44.4764 47.8065 43.9181 47.9105 43.1804 47.9105H43.1833ZM22.9972 52.1785C22.6327 52.1785 22.3289 52.453 22.3289 52.8373C22.3289 53.2216 22.6414 53.5048 22.9972 53.5048C23.3704 53.5048 23.677 53.2101 23.677 52.8373C23.677 52.4646 23.3646 52.1785 22.9972 52.1785ZM19.6357 55.2126C20.2953 55.2126 20.6598 55.4062 21.0532 55.6691L21.3483 54.8283C20.8912 54.4757 20.3242 54.3226 19.5952 54.3226C18.1777 54.3226 16.8615 55.3137 16.8615 57.1544C16.8615 58.9951 18.1372 59.8764 19.5663 59.8764C20.3358 59.8764 20.9143 59.6943 21.3193 59.4025L21.1053 58.6136C20.6193 58.9055 20.194 58.9979 19.6155 58.9979C18.7042 58.9979 17.9232 58.2987 17.9232 57.1168C17.9232 55.935 18.7332 55.2155 19.6357 55.2155V55.2126ZM13.0545 54.3226C11.6371 54.3226 10.2398 55.2848 10.2398 57.1255C10.2398 58.9662 11.5966 59.8764 13.0343 59.8764C14.472 59.8764 15.93 58.9141 15.93 57.0735C15.93 55.2328 14.4518 54.3226 13.0545 54.3226ZM13.0632 58.9951C12.0999 58.9951 11.3015 58.3882 11.3015 57.0821C11.3015 55.776 12.1925 55.201 13.0748 55.201C14.0063 55.201 14.8568 55.8483 14.8568 57.1226C14.8568 58.3969 14.0468 58.9951 13.0632 58.9951ZM29.3759 55.3946C28.9188 54.7069 28.2708 54.3226 27.4116 54.3226C25.9739 54.3226 24.8081 55.3253 24.8081 57.1139C24.8081 58.9026 25.9941 59.8764 27.4116 59.8764C28.2824 59.8764 28.9217 59.4805 29.3759 58.7234V59.7666H30.3883V54.4555H29.3759V55.3975V55.3946ZM29.3759 57.1139C29.1415 58.1975 28.4849 58.9864 27.5013 58.9864C26.5177 58.9864 25.8697 58.2987 25.8697 57.1053C25.8697 55.8194 26.5698 55.2126 27.5013 55.2126C28.4328 55.2126 29.1618 55.9812 29.3759 57.0735V57.1139ZM22.4909 59.7637H23.5034V54.4526H22.4909V59.7637ZM32.0286 59.7637H33.0411V52.6524H32.0286V59.7637ZM5.8138 54.5364C5.8138 53.9585 6.23905 53.473 7.16186 53.473C7.80985 53.473 8.39709 53.7158 8.81366 53.9585L9.13766 53.0685C8.73266 52.7449 7.89374 52.5339 7.15318 52.5339C5.75594 52.5339 4.75213 53.3748 4.75213 54.6375C4.75213 57.1659 8.26692 56.2962 8.26692 57.8334C8.26692 58.4605 7.7491 58.9459 6.76843 58.9459C6.10019 58.9459 5.4117 58.7032 4.91413 58.4085L4.67114 59.3591C5.18895 59.6712 6.04812 59.8764 6.77711 59.8764C8.18592 59.8764 9.3199 59.0586 9.3199 57.7612C9.3199 55.3946 5.81669 56.273 5.81669 54.5335L5.8138 54.5364ZM66.4185 55.3946C65.9614 54.7069 65.3134 54.3226 64.4542 54.3226C63.0165 54.3226 61.8507 55.3253 61.8507 57.1139C61.8507 58.9026 63.0368 59.8764 64.4542 59.8764C65.325 59.8764 65.9643 59.4805 66.4185 58.7234V59.7666H67.431V54.4555H66.4185V55.3975V55.3946ZM66.4185 57.1139C66.1842 58.1975 65.5275 58.9864 64.5439 58.9864C63.5604 58.9864 62.9124 58.2987 62.9124 57.1053C62.9124 55.8194 63.6124 55.2126 64.5439 55.2126C65.4754 55.2126 66.2044 55.9812 66.4185 57.0735V57.1139ZM37.6117 59.7637H38.656V52.6524H37.6117V59.7637ZM78.0013 55.2126C78.6609 55.2126 79.0254 55.4033 79.4188 55.6662L79.711 54.8254C79.2539 54.4728 78.6898 54.3197 77.9579 54.3197C76.5405 54.3197 75.2242 55.3108 75.2242 57.1515C75.2242 58.9922 76.5 59.8735 77.929 59.8735C78.6985 59.8735 79.2771 59.6914 79.6821 59.3996L79.468 58.6107C78.982 58.9026 78.5568 58.9951 77.9782 58.9951C77.067 58.9951 76.2859 58.2958 76.2859 57.1139C76.2859 55.9321 77.0959 55.2126 77.9984 55.2126H78.0013ZM85.6239 57.0995C85.6239 55.2212 84.4899 54.3226 83.0811 54.3226C81.6029 54.3226 80.4284 55.3831 80.4284 57.1486C80.4284 58.9141 81.4612 59.8735 83.2229 59.8735C84.0647 59.8735 84.8429 59.6625 85.3607 59.3187L85.1669 58.5616C84.5189 58.9141 83.9721 59.0153 83.3444 59.0153C82.2306 59.0153 81.5913 58.5009 81.4901 57.4404H85.5921C85.6124 57.3595 85.621 57.2179 85.621 57.0966L85.6239 57.0995ZM81.5017 56.7152C81.6232 55.6951 82.2104 55.1808 83.0609 55.1808C83.9114 55.1808 84.4581 55.6749 84.5594 56.7152H81.5017ZM72.1492 54.3341C71.2987 54.3341 70.6102 54.7502 70.0837 55.5998V54.4555H69.0712V59.7666H70.0837V56.9145C70.5292 55.7703 71.0846 55.2241 71.9148 55.2241C72.5628 55.2241 72.9794 55.6489 72.9794 56.6314V59.7666H73.9919V56.5302C73.9919 54.8398 73.1501 54.3341 72.1492 54.3341ZM43.3945 54.3341C42.544 54.3341 41.8555 54.7502 41.329 55.5998V54.4555H40.3165V59.7666H41.329V56.9145C41.7745 55.7703 42.3299 55.2241 43.1631 55.2241C43.811 55.2241 44.2247 55.6489 44.2247 56.6314V59.7666H45.2372V56.5302C45.2372 54.8398 44.3954 54.3341 43.3945 54.3341ZM47.5457 55.8916C47.5457 55.4264 48.0201 55.1721 48.6305 55.1721C49.157 55.1721 49.6545 55.3339 50.1203 55.6056L50.3344 54.7473C49.8686 54.4844 49.2004 54.3226 48.6016 54.3226C47.2853 54.3226 46.5245 54.9814 46.5245 55.9523C46.5245 58.1282 49.5012 57.0966 49.5012 58.3102C49.5012 58.8477 49.0239 59.0384 48.3267 59.0384C47.7279 59.0384 47.1118 58.8563 46.6547 58.5818L46.4319 59.4516C46.8485 59.6654 47.5862 59.8764 48.3065 59.8764C49.5331 59.8764 50.505 59.2378 50.505 58.2264C50.505 56.2037 47.5486 57.2353 47.5486 55.8887L47.5457 55.8916ZM59.1777 55.5767V54.4526H58.1652V59.7637H59.1777V56.9001C59.5509 55.909 60.1613 55.2299 60.8787 55.2299C61.0205 55.2299 61.1825 55.2617 61.3242 55.3108L61.4949 54.4295C61.3242 54.3688 61.142 54.3486 60.9568 54.3486C60.1873 54.3486 59.5914 54.8832 59.1748 55.5738L59.1777 55.5767ZM55.5241 57.3278C55.0989 58.4402 54.5405 58.9777 53.7508 58.9777C53.1115 58.9777 52.6978 58.5529 52.6978 57.582V54.4555H51.6853V57.6716C51.6853 59.362 52.5271 59.8677 53.5078 59.8677C54.3699 59.8677 55.0265 59.4834 55.5241 58.6743V59.7666H56.5366V54.4555H55.5241V57.3278Z" fill="#00004E"/>
	<path d="M85.9999 21.6903L77.1739 30.5181C76.7023 31.0584 76.0196 31.3705 75.3022 31.3705H73.364C73.364 27.1979 77.4313 23.557 80.868 21.6932C77.4313 19.8265 73.364 16.1885 73.364 12.016H75.3022C76.0196 12.016 76.7023 12.3251 77.1739 12.8684L85.9999 21.6961V21.6903Z" fill="#00BF00"/>
	</svg>
	